<mxfile host="app.diagrams.net" modified="2023-07-27T11:17:36.461Z" agent="Mozilla/5.0 (Windows NT 10.0; Win64; x64) AppleWebKit/537.36 (KHTML, like Gecko) Chrome/115.0.0.0 Safari/537.36" etag="MTxKRaz_tnYQFcLlBykz" version="21.6.5" type="device">
  <diagram name="Página-1" id="wUt6bu2cucrQEqc247po">
    <mxGraphModel dx="2062" dy="721" grid="1" gridSize="10" guides="1" tooltips="1" connect="1" arrows="1" fold="1" page="1" pageScale="1" pageWidth="827" pageHeight="1169" math="0" shadow="0">
      <root>
        <mxCell id="0" />
        <mxCell id="1" parent="0" />
        <mxCell id="kWm02lygD7cGhgR4Ec7L-1" value="&lt;div&gt;&lt;b&gt;A Optus é uma empresa no ramo musical que deseja realizar o gerenciamento dos lançamentos de novos cds de seus artistas. Cada álbum lançado poderá conter mais de um estilo vinculado (ex.: Indie e Folk).&lt;/b&gt;&lt;/div&gt;&lt;div&gt;&lt;b&gt;É importante que você crie também uma estratégia para que os usuários possuam acesso à plataforma.&lt;/b&gt;&lt;/div&gt;&lt;div&gt;&lt;b&gt;Os usuários deverão conter nome, email, senha e o tipo de permissão (eles podem ser do tipo administrador ou comum).&lt;/b&gt;&lt;/div&gt;&lt;div&gt;&lt;b&gt;&lt;br&gt;&lt;/b&gt;&lt;/div&gt;&lt;div&gt;&lt;b&gt;Observações:&lt;/b&gt;&lt;/div&gt;&lt;div&gt;&lt;b&gt;Os Artistas deverão possuir somente nome.&lt;/b&gt;&lt;/div&gt;&lt;div&gt;&lt;b&gt;Estilos: nome.&lt;/b&gt;&lt;/div&gt;&lt;div&gt;&lt;b&gt;Albuns: titulo, data de lançamento, localizacao, quantidade de minutos, se o álbum está ativo para visualização, a quem pertence (somente um artista por álbum) e quais os estilos vinculados.&lt;/b&gt;&lt;/div&gt;&lt;div&gt;&lt;b&gt;&lt;br&gt;&lt;/b&gt;&lt;/div&gt;&lt;div&gt;&lt;b&gt;DQL&lt;/b&gt;&lt;/div&gt;&lt;div&gt;&lt;b&gt;&lt;br&gt;&lt;/b&gt;&lt;/div&gt;&lt;div&gt;&lt;b&gt;- listar todos os usuários administradores, sem exibir suas senhas&lt;/b&gt;&lt;/div&gt;&lt;div&gt;&lt;b&gt;- listar todos os álbuns lançados após o um determinado ano de lançamento&lt;/b&gt;&lt;/div&gt;&lt;div&gt;&lt;b&gt;- listar os dados de um usuário através do e-mail e senha&lt;/b&gt;&lt;/div&gt;&lt;div&gt;&lt;b&gt;- listar todos os álbuns ativos, mostrando o nome do artista e os estilos do álbum&amp;nbsp;&lt;/b&gt;&lt;/div&gt;" style="text;html=1;align=center;verticalAlign=middle;resizable=1;points=[];autosize=1;strokeColor=none;fillColor=none;movable=1;rotatable=1;deletable=1;editable=1;locked=0;connectable=1;" parent="1" vertex="1">
          <mxGeometry x="-180" y="140" width="1220" height="230" as="geometry" />
        </mxCell>
        <mxCell id="kWm02lygD7cGhgR4Ec7L-24" style="edgeStyle=orthogonalEdgeStyle;rounded=0;orthogonalLoop=1;jettySize=auto;html=1;exitX=0.5;exitY=1;exitDx=0;exitDy=0;endArrow=none;endFill=0;" parent="1" source="kWm02lygD7cGhgR4Ec7L-2" target="kWm02lygD7cGhgR4Ec7L-22" edge="1">
          <mxGeometry relative="1" as="geometry" />
        </mxCell>
        <mxCell id="kWm02lygD7cGhgR4Ec7L-2" value="empresa" style="rounded=0;whiteSpace=wrap;html=1;" parent="1" vertex="1">
          <mxGeometry x="532" y="641" width="120" height="60" as="geometry" />
        </mxCell>
        <mxCell id="kWm02lygD7cGhgR4Ec7L-8" style="edgeStyle=orthogonalEdgeStyle;rounded=0;orthogonalLoop=1;jettySize=auto;html=1;exitX=1;exitY=0.5;exitDx=0;exitDy=0;entryX=0;entryY=0.5;entryDx=0;entryDy=0;endArrow=none;endFill=0;" parent="1" source="kWm02lygD7cGhgR4Ec7L-5" target="kWm02lygD7cGhgR4Ec7L-2" edge="1">
          <mxGeometry relative="1" as="geometry" />
        </mxCell>
        <mxCell id="kWm02lygD7cGhgR4Ec7L-5" value="possui" style="rhombus;whiteSpace=wrap;html=1;" parent="1" vertex="1">
          <mxGeometry x="422" y="641" width="60" height="60" as="geometry" />
        </mxCell>
        <mxCell id="kWm02lygD7cGhgR4Ec7L-7" style="edgeStyle=orthogonalEdgeStyle;rounded=0;orthogonalLoop=1;jettySize=auto;html=1;exitX=1;exitY=0.5;exitDx=0;exitDy=0;entryX=0;entryY=0.5;entryDx=0;entryDy=0;endArrow=none;endFill=0;" parent="1" source="kWm02lygD7cGhgR4Ec7L-6" target="kWm02lygD7cGhgR4Ec7L-5" edge="1">
          <mxGeometry relative="1" as="geometry" />
        </mxCell>
        <mxCell id="kWm02lygD7cGhgR4Ec7L-6" value="CD" style="rounded=0;whiteSpace=wrap;html=1;fillColor=#b0e3e6;strokeColor=#0e8088;" parent="1" vertex="1">
          <mxGeometry x="252" y="641" width="120" height="60" as="geometry" />
        </mxCell>
        <mxCell id="kWm02lygD7cGhgR4Ec7L-16" style="edgeStyle=orthogonalEdgeStyle;rounded=0;orthogonalLoop=1;jettySize=auto;html=1;exitX=0.5;exitY=1;exitDx=0;exitDy=0;entryX=0.5;entryY=0;entryDx=0;entryDy=0;endArrow=none;endFill=0;" parent="1" target="kWm02lygD7cGhgR4Ec7L-6" edge="1">
          <mxGeometry relative="1" as="geometry">
            <mxPoint x="312" y="571" as="sourcePoint" />
          </mxGeometry>
        </mxCell>
        <mxCell id="kWm02lygD7cGhgR4Ec7L-13" value="estilo" style="rounded=0;whiteSpace=wrap;html=1;fillColor=#bac8d3;strokeColor=#23445d;" parent="1" vertex="1">
          <mxGeometry x="252" y="430" width="120" height="60" as="geometry" />
        </mxCell>
        <mxCell id="kWm02lygD7cGhgR4Ec7L-15" style="edgeStyle=orthogonalEdgeStyle;rounded=0;orthogonalLoop=1;jettySize=auto;html=1;exitX=1;exitY=0.5;exitDx=0;exitDy=0;endArrow=none;endFill=0;" parent="1" source="kWm02lygD7cGhgR4Ec7L-14" target="kWm02lygD7cGhgR4Ec7L-13" edge="1">
          <mxGeometry relative="1" as="geometry">
            <mxPoint x="252" y="541" as="targetPoint" />
          </mxGeometry>
        </mxCell>
        <mxCell id="kWm02lygD7cGhgR4Ec7L-14" value="nome" style="ellipse;whiteSpace=wrap;html=1;" parent="1" vertex="1">
          <mxGeometry x="162" y="450" width="70" height="40" as="geometry" />
        </mxCell>
        <mxCell id="kWm02lygD7cGhgR4Ec7L-17" value="N" style="text;html=1;align=center;verticalAlign=middle;resizable=0;points=[];autosize=1;strokeColor=none;fillColor=none;" parent="1" vertex="1">
          <mxGeometry x="312" y="490" width="30" height="30" as="geometry" />
        </mxCell>
        <mxCell id="kWm02lygD7cGhgR4Ec7L-18" value="1" style="text;html=1;align=center;verticalAlign=middle;resizable=0;points=[];autosize=1;strokeColor=none;fillColor=none;" parent="1" vertex="1">
          <mxGeometry x="312" y="611" width="30" height="30" as="geometry" />
        </mxCell>
        <mxCell id="kWm02lygD7cGhgR4Ec7L-22" value="acessa" style="rhombus;whiteSpace=wrap;html=1;" parent="1" vertex="1">
          <mxGeometry x="562" y="740" width="60" height="60" as="geometry" />
        </mxCell>
        <mxCell id="kWm02lygD7cGhgR4Ec7L-25" style="edgeStyle=orthogonalEdgeStyle;rounded=0;orthogonalLoop=1;jettySize=auto;html=1;exitX=0.5;exitY=0;exitDx=0;exitDy=0;entryX=0.5;entryY=1;entryDx=0;entryDy=0;endArrow=none;endFill=0;" parent="1" source="kWm02lygD7cGhgR4Ec7L-23" target="kWm02lygD7cGhgR4Ec7L-22" edge="1">
          <mxGeometry relative="1" as="geometry" />
        </mxCell>
        <mxCell id="kWm02lygD7cGhgR4Ec7L-23" value="usuário" style="rounded=0;whiteSpace=wrap;html=1;" parent="1" vertex="1">
          <mxGeometry x="532" y="830" width="120" height="60" as="geometry" />
        </mxCell>
        <mxCell id="kWm02lygD7cGhgR4Ec7L-28" style="edgeStyle=orthogonalEdgeStyle;rounded=0;orthogonalLoop=1;jettySize=auto;html=1;exitX=0.5;exitY=0;exitDx=0;exitDy=0;entryX=0.5;entryY=1;entryDx=0;entryDy=0;endArrow=none;endFill=0;" parent="1" source="kWm02lygD7cGhgR4Ec7L-27" target="kWm02lygD7cGhgR4Ec7L-13" edge="1">
          <mxGeometry relative="1" as="geometry" />
        </mxCell>
        <mxCell id="kWm02lygD7cGhgR4Ec7L-27" value="possui" style="rhombus;whiteSpace=wrap;html=1;" parent="1" vertex="1">
          <mxGeometry x="279.5" y="530" width="65" height="60" as="geometry" />
        </mxCell>
        <mxCell id="kWm02lygD7cGhgR4Ec7L-31" style="edgeStyle=orthogonalEdgeStyle;rounded=0;orthogonalLoop=1;jettySize=auto;html=1;exitX=1;exitY=0.5;exitDx=0;exitDy=0;entryX=0;entryY=0.5;entryDx=0;entryDy=0;endArrow=none;endFill=0;" parent="1" source="kWm02lygD7cGhgR4Ec7L-30" target="kWm02lygD7cGhgR4Ec7L-6" edge="1">
          <mxGeometry relative="1" as="geometry" />
        </mxCell>
        <mxCell id="kWm02lygD7cGhgR4Ec7L-30" value="nome" style="ellipse;whiteSpace=wrap;html=1;" parent="1" vertex="1">
          <mxGeometry x="-60" y="510" width="70" height="40" as="geometry" />
        </mxCell>
        <mxCell id="kWm02lygD7cGhgR4Ec7L-36" style="edgeStyle=orthogonalEdgeStyle;rounded=0;orthogonalLoop=1;jettySize=auto;html=1;exitX=0.5;exitY=0;exitDx=0;exitDy=0;entryX=0.5;entryY=1;entryDx=0;entryDy=0;endArrow=none;endFill=0;" parent="1" source="kWm02lygD7cGhgR4Ec7L-32" target="kWm02lygD7cGhgR4Ec7L-33" edge="1">
          <mxGeometry relative="1" as="geometry" />
        </mxCell>
        <mxCell id="kWm02lygD7cGhgR4Ec7L-32" value="artista" style="rounded=0;whiteSpace=wrap;html=1;" parent="1" vertex="1">
          <mxGeometry x="252" y="810" width="120" height="60" as="geometry" />
        </mxCell>
        <mxCell id="kWm02lygD7cGhgR4Ec7L-37" style="edgeStyle=orthogonalEdgeStyle;rounded=0;orthogonalLoop=1;jettySize=auto;html=1;exitX=0.5;exitY=0;exitDx=0;exitDy=0;entryX=0.5;entryY=1;entryDx=0;entryDy=0;endArrow=none;endFill=0;" parent="1" source="kWm02lygD7cGhgR4Ec7L-33" target="kWm02lygD7cGhgR4Ec7L-6" edge="1">
          <mxGeometry relative="1" as="geometry" />
        </mxCell>
        <mxCell id="kWm02lygD7cGhgR4Ec7L-33" value="produz" style="rhombus;whiteSpace=wrap;html=1;" parent="1" vertex="1">
          <mxGeometry x="279.5" y="730" width="62.5" height="60" as="geometry" />
        </mxCell>
        <mxCell id="kWm02lygD7cGhgR4Ec7L-35" style="edgeStyle=orthogonalEdgeStyle;rounded=0;orthogonalLoop=1;jettySize=auto;html=1;exitX=0.5;exitY=0;exitDx=0;exitDy=0;entryX=0.5;entryY=1;entryDx=0;entryDy=0;endArrow=none;endFill=0;" parent="1" source="kWm02lygD7cGhgR4Ec7L-34" target="kWm02lygD7cGhgR4Ec7L-32" edge="1">
          <mxGeometry relative="1" as="geometry" />
        </mxCell>
        <mxCell id="kWm02lygD7cGhgR4Ec7L-34" value="nome" style="ellipse;whiteSpace=wrap;html=1;" parent="1" vertex="1">
          <mxGeometry x="277" y="900" width="70" height="40" as="geometry" />
        </mxCell>
        <mxCell id="kWm02lygD7cGhgR4Ec7L-43" value="" style="group" parent="1" vertex="1" connectable="0">
          <mxGeometry x="455" y="910" width="308" height="40" as="geometry" />
        </mxCell>
        <mxCell id="kWm02lygD7cGhgR4Ec7L-39" value="nome" style="ellipse;whiteSpace=wrap;html=1;" parent="kWm02lygD7cGhgR4Ec7L-43" vertex="1">
          <mxGeometry width="70" height="40" as="geometry" />
        </mxCell>
        <mxCell id="kWm02lygD7cGhgR4Ec7L-40" value="email" style="ellipse;whiteSpace=wrap;html=1;" parent="kWm02lygD7cGhgR4Ec7L-43" vertex="1">
          <mxGeometry x="78" width="70" height="40" as="geometry" />
        </mxCell>
        <mxCell id="kWm02lygD7cGhgR4Ec7L-41" value="senha" style="ellipse;whiteSpace=wrap;html=1;" parent="kWm02lygD7cGhgR4Ec7L-43" vertex="1">
          <mxGeometry x="158" width="70" height="40" as="geometry" />
        </mxCell>
        <mxCell id="kWm02lygD7cGhgR4Ec7L-42" value="tipo de permissão" style="ellipse;whiteSpace=wrap;html=1;" parent="kWm02lygD7cGhgR4Ec7L-43" vertex="1">
          <mxGeometry x="238" width="70" height="40" as="geometry" />
        </mxCell>
        <mxCell id="kWm02lygD7cGhgR4Ec7L-45" style="edgeStyle=orthogonalEdgeStyle;rounded=0;orthogonalLoop=1;jettySize=auto;html=1;exitX=0.5;exitY=0;exitDx=0;exitDy=0;entryX=0;entryY=0.5;entryDx=0;entryDy=0;endArrow=none;endFill=0;" parent="1" source="kWm02lygD7cGhgR4Ec7L-39" target="kWm02lygD7cGhgR4Ec7L-23" edge="1">
          <mxGeometry relative="1" as="geometry" />
        </mxCell>
        <mxCell id="kWm02lygD7cGhgR4Ec7L-46" style="edgeStyle=orthogonalEdgeStyle;rounded=0;orthogonalLoop=1;jettySize=auto;html=1;exitX=0.5;exitY=0;exitDx=0;exitDy=0;entryX=0.25;entryY=1;entryDx=0;entryDy=0;endArrow=none;endFill=0;" parent="1" source="kWm02lygD7cGhgR4Ec7L-40" target="kWm02lygD7cGhgR4Ec7L-23" edge="1">
          <mxGeometry relative="1" as="geometry" />
        </mxCell>
        <mxCell id="kWm02lygD7cGhgR4Ec7L-47" style="edgeStyle=orthogonalEdgeStyle;rounded=0;orthogonalLoop=1;jettySize=auto;html=1;exitX=0.5;exitY=0;exitDx=0;exitDy=0;entryX=0.917;entryY=1.036;entryDx=0;entryDy=0;entryPerimeter=0;endArrow=none;endFill=0;" parent="1" source="kWm02lygD7cGhgR4Ec7L-41" target="kWm02lygD7cGhgR4Ec7L-23" edge="1">
          <mxGeometry relative="1" as="geometry" />
        </mxCell>
        <mxCell id="kWm02lygD7cGhgR4Ec7L-48" style="edgeStyle=orthogonalEdgeStyle;rounded=0;orthogonalLoop=1;jettySize=auto;html=1;exitX=0.5;exitY=0;exitDx=0;exitDy=0;entryX=1;entryY=0.5;entryDx=0;entryDy=0;endArrow=none;endFill=0;" parent="1" source="kWm02lygD7cGhgR4Ec7L-42" target="kWm02lygD7cGhgR4Ec7L-23" edge="1">
          <mxGeometry relative="1" as="geometry" />
        </mxCell>
        <mxCell id="kWm02lygD7cGhgR4Ec7L-56" style="edgeStyle=orthogonalEdgeStyle;rounded=0;orthogonalLoop=1;jettySize=auto;html=1;exitX=1;exitY=0.5;exitDx=0;exitDy=0;endArrow=none;endFill=0;" parent="1" source="kWm02lygD7cGhgR4Ec7L-49" edge="1">
          <mxGeometry relative="1" as="geometry">
            <mxPoint x="250" y="670" as="targetPoint" />
            <Array as="points">
              <mxPoint x="10" y="600" />
              <mxPoint x="130" y="600" />
              <mxPoint x="130" y="670" />
            </Array>
          </mxGeometry>
        </mxCell>
        <mxCell id="kWm02lygD7cGhgR4Ec7L-49" value="data de lançamento" style="ellipse;whiteSpace=wrap;html=1;" parent="1" vertex="1">
          <mxGeometry x="-60" y="560" width="70" height="40" as="geometry" />
        </mxCell>
        <mxCell id="kWm02lygD7cGhgR4Ec7L-55" style="edgeStyle=orthogonalEdgeStyle;rounded=0;orthogonalLoop=1;jettySize=auto;html=1;exitX=1;exitY=0.5;exitDx=0;exitDy=0;entryX=0;entryY=0.5;entryDx=0;entryDy=0;endArrow=none;endFill=0;" parent="1" source="kWm02lygD7cGhgR4Ec7L-50" target="kWm02lygD7cGhgR4Ec7L-6" edge="1">
          <mxGeometry relative="1" as="geometry" />
        </mxCell>
        <mxCell id="kWm02lygD7cGhgR4Ec7L-50" value="localização" style="ellipse;whiteSpace=wrap;html=1;" parent="1" vertex="1">
          <mxGeometry x="-60" y="611" width="70" height="40" as="geometry" />
        </mxCell>
        <mxCell id="kWm02lygD7cGhgR4Ec7L-54" style="edgeStyle=orthogonalEdgeStyle;rounded=0;orthogonalLoop=1;jettySize=auto;html=1;exitX=1;exitY=0.5;exitDx=0;exitDy=0;endArrow=none;endFill=0;" parent="1" source="kWm02lygD7cGhgR4Ec7L-51" edge="1">
          <mxGeometry relative="1" as="geometry">
            <mxPoint x="250" y="670" as="targetPoint" />
          </mxGeometry>
        </mxCell>
        <mxCell id="kWm02lygD7cGhgR4Ec7L-51" value="quantidade de minutos" style="ellipse;whiteSpace=wrap;html=1;" parent="1" vertex="1">
          <mxGeometry x="-60" y="661" width="70" height="40" as="geometry" />
        </mxCell>
        <mxCell id="kWm02lygD7cGhgR4Ec7L-53" style="edgeStyle=orthogonalEdgeStyle;rounded=0;orthogonalLoop=1;jettySize=auto;html=1;exitX=1;exitY=0.5;exitDx=0;exitDy=0;entryX=0;entryY=0.5;entryDx=0;entryDy=0;endArrow=none;endFill=0;" parent="1" source="kWm02lygD7cGhgR4Ec7L-52" target="kWm02lygD7cGhgR4Ec7L-6" edge="1">
          <mxGeometry relative="1" as="geometry" />
        </mxCell>
        <mxCell id="kWm02lygD7cGhgR4Ec7L-52" value="status de atividade" style="ellipse;whiteSpace=wrap;html=1;" parent="1" vertex="1">
          <mxGeometry x="-60" y="710" width="70" height="40" as="geometry" />
        </mxCell>
        <mxCell id="kWm02lygD7cGhgR4Ec7L-57" value="1" style="text;html=1;align=center;verticalAlign=middle;resizable=0;points=[];autosize=1;strokeColor=none;fillColor=none;" parent="1" vertex="1">
          <mxGeometry x="314.5" y="780" width="30" height="30" as="geometry" />
        </mxCell>
        <mxCell id="kWm02lygD7cGhgR4Ec7L-58" value="1" style="text;html=1;align=center;verticalAlign=middle;resizable=0;points=[];autosize=1;strokeColor=none;fillColor=none;" parent="1" vertex="1">
          <mxGeometry x="312" y="700" width="30" height="30" as="geometry" />
        </mxCell>
        <mxCell id="kWm02lygD7cGhgR4Ec7L-59" value="N" style="text;html=1;align=center;verticalAlign=middle;resizable=0;points=[];autosize=1;strokeColor=none;fillColor=none;" parent="1" vertex="1">
          <mxGeometry x="372" y="641" width="30" height="30" as="geometry" />
        </mxCell>
        <mxCell id="kWm02lygD7cGhgR4Ec7L-60" value="1" style="text;html=1;align=center;verticalAlign=middle;resizable=0;points=[];autosize=1;strokeColor=none;fillColor=none;" parent="1" vertex="1">
          <mxGeometry x="502" y="641" width="30" height="30" as="geometry" />
        </mxCell>
        <mxCell id="r0mQArZR5CZfNcJA4XPD-14" value="Estilo" style="shape=table;startSize=30;container=1;collapsible=1;childLayout=tableLayout;fixedRows=1;rowLines=0;fontStyle=1;align=center;resizeLast=1;html=1;fillColor=#bac8d3;strokeColor=#23445d;" vertex="1" parent="1">
          <mxGeometry x="198" y="1020" width="180" height="90" as="geometry" />
        </mxCell>
        <mxCell id="r0mQArZR5CZfNcJA4XPD-15" value="" style="shape=tableRow;horizontal=0;startSize=0;swimlaneHead=0;swimlaneBody=0;fillColor=none;collapsible=0;dropTarget=0;points=[[0,0.5],[1,0.5]];portConstraint=eastwest;top=0;left=0;right=0;bottom=1;" vertex="1" parent="r0mQArZR5CZfNcJA4XPD-14">
          <mxGeometry y="30" width="180" height="30" as="geometry" />
        </mxCell>
        <mxCell id="r0mQArZR5CZfNcJA4XPD-16" value="PK" style="shape=partialRectangle;connectable=0;fillColor=none;top=0;left=0;bottom=0;right=0;fontStyle=1;overflow=hidden;whiteSpace=wrap;html=1;" vertex="1" parent="r0mQArZR5CZfNcJA4XPD-15">
          <mxGeometry width="30" height="30" as="geometry">
            <mxRectangle width="30" height="30" as="alternateBounds" />
          </mxGeometry>
        </mxCell>
        <mxCell id="r0mQArZR5CZfNcJA4XPD-17" value="IdEstilo" style="shape=partialRectangle;connectable=0;fillColor=none;top=0;left=0;bottom=0;right=0;align=left;spacingLeft=6;fontStyle=5;overflow=hidden;whiteSpace=wrap;html=1;" vertex="1" parent="r0mQArZR5CZfNcJA4XPD-15">
          <mxGeometry x="30" width="150" height="30" as="geometry">
            <mxRectangle width="150" height="30" as="alternateBounds" />
          </mxGeometry>
        </mxCell>
        <mxCell id="r0mQArZR5CZfNcJA4XPD-18" value="" style="shape=tableRow;horizontal=0;startSize=0;swimlaneHead=0;swimlaneBody=0;fillColor=none;collapsible=0;dropTarget=0;points=[[0,0.5],[1,0.5]];portConstraint=eastwest;top=0;left=0;right=0;bottom=0;" vertex="1" parent="r0mQArZR5CZfNcJA4XPD-14">
          <mxGeometry y="60" width="180" height="30" as="geometry" />
        </mxCell>
        <mxCell id="r0mQArZR5CZfNcJA4XPD-19" value="" style="shape=partialRectangle;connectable=0;fillColor=none;top=0;left=0;bottom=0;right=0;editable=1;overflow=hidden;whiteSpace=wrap;html=1;" vertex="1" parent="r0mQArZR5CZfNcJA4XPD-18">
          <mxGeometry width="30" height="30" as="geometry">
            <mxRectangle width="30" height="30" as="alternateBounds" />
          </mxGeometry>
        </mxCell>
        <mxCell id="r0mQArZR5CZfNcJA4XPD-20" value="NomeEstilo" style="shape=partialRectangle;connectable=0;fillColor=none;top=0;left=0;bottom=0;right=0;align=left;spacingLeft=6;overflow=hidden;whiteSpace=wrap;html=1;" vertex="1" parent="r0mQArZR5CZfNcJA4XPD-18">
          <mxGeometry x="30" width="150" height="30" as="geometry">
            <mxRectangle width="150" height="30" as="alternateBounds" />
          </mxGeometry>
        </mxCell>
        <mxCell id="r0mQArZR5CZfNcJA4XPD-30" value="CD" style="shape=table;startSize=30;container=1;collapsible=1;childLayout=tableLayout;fixedRows=1;rowLines=0;fontStyle=1;align=center;resizeLast=1;html=1;fillColor=#b0e3e6;strokeColor=#0e8088;" vertex="1" parent="1">
          <mxGeometry x="198" y="1130" width="180" height="240" as="geometry" />
        </mxCell>
        <mxCell id="r0mQArZR5CZfNcJA4XPD-31" value="" style="shape=tableRow;horizontal=0;startSize=0;swimlaneHead=0;swimlaneBody=0;fillColor=none;collapsible=0;dropTarget=0;points=[[0,0.5],[1,0.5]];portConstraint=eastwest;top=0;left=0;right=0;bottom=1;" vertex="1" parent="r0mQArZR5CZfNcJA4XPD-30">
          <mxGeometry y="30" width="180" height="30" as="geometry" />
        </mxCell>
        <mxCell id="r0mQArZR5CZfNcJA4XPD-32" value="PK" style="shape=partialRectangle;connectable=0;fillColor=none;top=0;left=0;bottom=0;right=0;fontStyle=1;overflow=hidden;whiteSpace=wrap;html=1;" vertex="1" parent="r0mQArZR5CZfNcJA4XPD-31">
          <mxGeometry width="30" height="30" as="geometry">
            <mxRectangle width="30" height="30" as="alternateBounds" />
          </mxGeometry>
        </mxCell>
        <mxCell id="r0mQArZR5CZfNcJA4XPD-33" value="IdCd" style="shape=partialRectangle;connectable=0;fillColor=none;top=0;left=0;bottom=0;right=0;align=left;spacingLeft=6;fontStyle=5;overflow=hidden;whiteSpace=wrap;html=1;" vertex="1" parent="r0mQArZR5CZfNcJA4XPD-31">
          <mxGeometry x="30" width="150" height="30" as="geometry">
            <mxRectangle width="150" height="30" as="alternateBounds" />
          </mxGeometry>
        </mxCell>
        <mxCell id="r0mQArZR5CZfNcJA4XPD-43" style="shape=tableRow;horizontal=0;startSize=0;swimlaneHead=0;swimlaneBody=0;fillColor=none;collapsible=0;dropTarget=0;points=[[0,0.5],[1,0.5]];portConstraint=eastwest;top=0;left=0;right=0;bottom=1;" vertex="1" parent="r0mQArZR5CZfNcJA4XPD-30">
          <mxGeometry y="60" width="180" height="30" as="geometry" />
        </mxCell>
        <mxCell id="r0mQArZR5CZfNcJA4XPD-44" value="FK" style="shape=partialRectangle;connectable=0;fillColor=none;top=0;left=0;bottom=0;right=0;fontStyle=1;overflow=hidden;whiteSpace=wrap;html=1;" vertex="1" parent="r0mQArZR5CZfNcJA4XPD-43">
          <mxGeometry width="30" height="30" as="geometry">
            <mxRectangle width="30" height="30" as="alternateBounds" />
          </mxGeometry>
        </mxCell>
        <mxCell id="r0mQArZR5CZfNcJA4XPD-45" value="IdEstilo" style="shape=partialRectangle;connectable=0;fillColor=none;top=0;left=0;bottom=0;right=0;align=left;spacingLeft=6;fontStyle=5;overflow=hidden;whiteSpace=wrap;html=1;" vertex="1" parent="r0mQArZR5CZfNcJA4XPD-43">
          <mxGeometry x="30" width="150" height="30" as="geometry">
            <mxRectangle width="150" height="30" as="alternateBounds" />
          </mxGeometry>
        </mxCell>
        <mxCell id="r0mQArZR5CZfNcJA4XPD-34" value="" style="shape=tableRow;horizontal=0;startSize=0;swimlaneHead=0;swimlaneBody=0;fillColor=none;collapsible=0;dropTarget=0;points=[[0,0.5],[1,0.5]];portConstraint=eastwest;top=0;left=0;right=0;bottom=0;" vertex="1" parent="r0mQArZR5CZfNcJA4XPD-30">
          <mxGeometry y="90" width="180" height="30" as="geometry" />
        </mxCell>
        <mxCell id="r0mQArZR5CZfNcJA4XPD-35" value="" style="shape=partialRectangle;connectable=0;fillColor=none;top=0;left=0;bottom=0;right=0;editable=1;overflow=hidden;whiteSpace=wrap;html=1;" vertex="1" parent="r0mQArZR5CZfNcJA4XPD-34">
          <mxGeometry width="30" height="30" as="geometry">
            <mxRectangle width="30" height="30" as="alternateBounds" />
          </mxGeometry>
        </mxCell>
        <mxCell id="r0mQArZR5CZfNcJA4XPD-36" value="NomeCd" style="shape=partialRectangle;connectable=0;fillColor=none;top=0;left=0;bottom=0;right=0;align=left;spacingLeft=6;overflow=hidden;whiteSpace=wrap;html=1;" vertex="1" parent="r0mQArZR5CZfNcJA4XPD-34">
          <mxGeometry x="30" width="150" height="30" as="geometry">
            <mxRectangle width="150" height="30" as="alternateBounds" />
          </mxGeometry>
        </mxCell>
        <mxCell id="r0mQArZR5CZfNcJA4XPD-37" value="" style="shape=tableRow;horizontal=0;startSize=0;swimlaneHead=0;swimlaneBody=0;fillColor=none;collapsible=0;dropTarget=0;points=[[0,0.5],[1,0.5]];portConstraint=eastwest;top=0;left=0;right=0;bottom=0;" vertex="1" parent="r0mQArZR5CZfNcJA4XPD-30">
          <mxGeometry y="120" width="180" height="30" as="geometry" />
        </mxCell>
        <mxCell id="r0mQArZR5CZfNcJA4XPD-38" value="" style="shape=partialRectangle;connectable=0;fillColor=none;top=0;left=0;bottom=0;right=0;editable=1;overflow=hidden;whiteSpace=wrap;html=1;" vertex="1" parent="r0mQArZR5CZfNcJA4XPD-37">
          <mxGeometry width="30" height="30" as="geometry">
            <mxRectangle width="30" height="30" as="alternateBounds" />
          </mxGeometry>
        </mxCell>
        <mxCell id="r0mQArZR5CZfNcJA4XPD-39" value="DataLancamento" style="shape=partialRectangle;connectable=0;fillColor=none;top=0;left=0;bottom=0;right=0;align=left;spacingLeft=6;overflow=hidden;whiteSpace=wrap;html=1;" vertex="1" parent="r0mQArZR5CZfNcJA4XPD-37">
          <mxGeometry x="30" width="150" height="30" as="geometry">
            <mxRectangle width="150" height="30" as="alternateBounds" />
          </mxGeometry>
        </mxCell>
        <mxCell id="r0mQArZR5CZfNcJA4XPD-40" value="" style="shape=tableRow;horizontal=0;startSize=0;swimlaneHead=0;swimlaneBody=0;fillColor=none;collapsible=0;dropTarget=0;points=[[0,0.5],[1,0.5]];portConstraint=eastwest;top=0;left=0;right=0;bottom=0;" vertex="1" parent="r0mQArZR5CZfNcJA4XPD-30">
          <mxGeometry y="150" width="180" height="30" as="geometry" />
        </mxCell>
        <mxCell id="r0mQArZR5CZfNcJA4XPD-41" value="" style="shape=partialRectangle;connectable=0;fillColor=none;top=0;left=0;bottom=0;right=0;editable=1;overflow=hidden;whiteSpace=wrap;html=1;" vertex="1" parent="r0mQArZR5CZfNcJA4XPD-40">
          <mxGeometry width="30" height="30" as="geometry">
            <mxRectangle width="30" height="30" as="alternateBounds" />
          </mxGeometry>
        </mxCell>
        <mxCell id="r0mQArZR5CZfNcJA4XPD-42" value="Localizacao" style="shape=partialRectangle;connectable=0;fillColor=none;top=0;left=0;bottom=0;right=0;align=left;spacingLeft=6;overflow=hidden;whiteSpace=wrap;html=1;" vertex="1" parent="r0mQArZR5CZfNcJA4XPD-40">
          <mxGeometry x="30" width="150" height="30" as="geometry">
            <mxRectangle width="150" height="30" as="alternateBounds" />
          </mxGeometry>
        </mxCell>
        <mxCell id="r0mQArZR5CZfNcJA4XPD-46" style="shape=tableRow;horizontal=0;startSize=0;swimlaneHead=0;swimlaneBody=0;fillColor=none;collapsible=0;dropTarget=0;points=[[0,0.5],[1,0.5]];portConstraint=eastwest;top=0;left=0;right=0;bottom=0;" vertex="1" parent="r0mQArZR5CZfNcJA4XPD-30">
          <mxGeometry y="180" width="180" height="30" as="geometry" />
        </mxCell>
        <mxCell id="r0mQArZR5CZfNcJA4XPD-47" style="shape=partialRectangle;connectable=0;fillColor=none;top=0;left=0;bottom=0;right=0;editable=1;overflow=hidden;whiteSpace=wrap;html=1;" vertex="1" parent="r0mQArZR5CZfNcJA4XPD-46">
          <mxGeometry width="30" height="30" as="geometry">
            <mxRectangle width="30" height="30" as="alternateBounds" />
          </mxGeometry>
        </mxCell>
        <mxCell id="r0mQArZR5CZfNcJA4XPD-48" value="QuantidadeMinutos" style="shape=partialRectangle;connectable=0;fillColor=none;top=0;left=0;bottom=0;right=0;align=left;spacingLeft=6;overflow=hidden;whiteSpace=wrap;html=1;" vertex="1" parent="r0mQArZR5CZfNcJA4XPD-46">
          <mxGeometry x="30" width="150" height="30" as="geometry">
            <mxRectangle width="150" height="30" as="alternateBounds" />
          </mxGeometry>
        </mxCell>
        <mxCell id="r0mQArZR5CZfNcJA4XPD-49" style="shape=tableRow;horizontal=0;startSize=0;swimlaneHead=0;swimlaneBody=0;fillColor=none;collapsible=0;dropTarget=0;points=[[0,0.5],[1,0.5]];portConstraint=eastwest;top=0;left=0;right=0;bottom=0;" vertex="1" parent="r0mQArZR5CZfNcJA4XPD-30">
          <mxGeometry y="210" width="180" height="30" as="geometry" />
        </mxCell>
        <mxCell id="r0mQArZR5CZfNcJA4XPD-50" style="shape=partialRectangle;connectable=0;fillColor=none;top=0;left=0;bottom=0;right=0;editable=1;overflow=hidden;whiteSpace=wrap;html=1;" vertex="1" parent="r0mQArZR5CZfNcJA4XPD-49">
          <mxGeometry width="30" height="30" as="geometry">
            <mxRectangle width="30" height="30" as="alternateBounds" />
          </mxGeometry>
        </mxCell>
        <mxCell id="r0mQArZR5CZfNcJA4XPD-51" value="AtividadeStatus" style="shape=partialRectangle;connectable=0;fillColor=none;top=0;left=0;bottom=0;right=0;align=left;spacingLeft=6;overflow=hidden;whiteSpace=wrap;html=1;" vertex="1" parent="r0mQArZR5CZfNcJA4XPD-49">
          <mxGeometry x="30" width="150" height="30" as="geometry">
            <mxRectangle width="150" height="30" as="alternateBounds" />
          </mxGeometry>
        </mxCell>
      </root>
    </mxGraphModel>
  </diagram>
</mxfile>
